<?xml version="1.0" encoding="utf-8"?>
<!-- Generator: Adobe Illustrator 22.0.0, SVG Export Plug-In . SVG Version: 6.00 Build 0)  -->
<svg version="1.1" xmlns="http://www.w3.org/2000/svg" xmlns:xlink="http://www.w3.org/1999/xlink" x="0px" y="0px"
	 viewBox="0 0 200 200" enable-background="new 0 0 200 200" xml:space="preserve">
<g id="Layer_1" display="none">
	<path d="M99.946,195c-5.29,0-10.579-2.013-14.607-6.04l-74.728-74.728c-8.054-8.054-8.054-21.159,0-29.213L85.339,10.29
		c8.054-8.052,21.159-8.054,29.213,0l74.728,74.729c8.054,8.054,8.054,21.159,0,29.213l-74.728,74.728
		C110.525,192.987,105.236,195,99.946,195z M99.946,7.597c-4.433,0-8.865,1.686-12.239,5.06L12.978,87.386
		c-6.748,6.749-6.748,17.729,0,24.478l74.728,74.728c6.749,6.749,17.729,6.749,24.478,0l74.728-74.728
		c6.748-6.749,6.748-17.729,0-24.478l-74.728-74.729C108.811,9.284,104.378,7.597,99.946,7.597z M42.933,124.29
		c-0.161,0.361-0.386,0.664-0.675,0.91c-0.289,0.246-0.633,0.433-1.033,0.562c-0.4,0.129-0.845,0.194-1.332,0.194
		c-0.684,0-1.355-0.123-2.013-0.368c-0.658-0.246-1.257-0.623-1.795-1.131l1.167-1.461c0.409,0.349,0.831,0.625,1.262,0.831
		c0.432,0.205,0.904,0.309,1.417,0.309c0.411,0,0.729-0.078,0.956-0.234c0.226-0.157,0.339-0.373,0.339-0.65v-0.027
		c0-0.133-0.024-0.251-0.071-0.354c-0.047-0.102-0.137-0.199-0.269-0.288c-0.133-0.089-0.318-0.179-0.553-0.268
		s-0.541-0.183-0.918-0.281c-0.455-0.116-0.866-0.246-1.235-0.388c-0.369-0.143-0.681-0.319-0.938-0.528
		c-0.258-0.211-0.456-0.471-0.598-0.783c-0.143-0.313-0.213-0.701-0.213-1.165v-0.027c0-0.428,0.077-0.815,0.23-1.159
		c0.152-0.343,0.366-0.64,0.642-0.889c0.276-0.251,0.606-0.442,0.989-0.577c0.383-0.133,0.806-0.2,1.267-0.2
		c0.658,0,1.263,0.102,1.814,0.307c0.552,0.205,1.058,0.501,1.52,0.884l-1.027,1.554c-0.402-0.286-0.794-0.511-1.178-0.676
		c-0.385-0.166-0.769-0.249-1.155-0.249c-0.385,0-0.672,0.078-0.865,0.234c-0.192,0.157-0.289,0.351-0.289,0.583v0.026
		c0,0.153,0.029,0.284,0.084,0.395c0.056,0.112,0.157,0.213,0.302,0.302c0.145,0.089,0.345,0.174,0.598,0.254
		c0.252,0.081,0.572,0.175,0.957,0.281c0.455,0.126,0.859,0.267,1.215,0.422c0.356,0.157,0.655,0.344,0.9,0.562
		c0.245,0.218,0.429,0.476,0.553,0.77c0.124,0.294,0.186,0.647,0.186,1.058v0.026C43.175,123.515,43.095,123.928,42.933,124.29z
		 M53.2,125.823v-6.121l-2.526,4.005h-0.051l-2.501-3.964v6.081h-1.949v-9.375h2.129l2.358,3.964l2.36-3.964h2.128v9.375H53.2z
		 M65.263,125.823l-0.82-2.103h-3.794l-0.821,2.103h-2.013l3.847-9.442h1.821l3.845,9.442H65.263z M62.545,118.858l-1.192,3.041
		h2.384L62.545,118.858z M75.445,125.823l-1.923-3h-1.551v3h-1.975v-9.375h4.103c1.069,0,1.899,0.272,2.494,0.817
		c0.594,0.544,0.891,1.303,0.891,2.276v0.027c0,0.759-0.178,1.377-0.532,1.855c-0.354,0.477-0.819,0.828-1.39,1.052l2.192,3.348
		H75.445z M75.484,119.648c0-0.446-0.137-0.781-0.411-1.005c-0.273-0.222-0.654-0.335-1.141-0.335h-1.962v2.693h2
		c0.488,0,0.861-0.122,1.122-0.362c0.26-0.241,0.391-0.562,0.391-0.964V119.648z M84.612,118.35v7.474h-1.975v-7.474h-2.731v-1.902
		h7.437v1.902H84.612z M97.24,118.309v2.023h4.282v1.861H97.24v3.63h-1.975v-9.375h6.834v1.861H97.24z M104.957,125.823v-9.375
		h6.757v1.835h-4.808v1.902h4.231v1.835h-4.231v1.968h4.872v1.835H104.957z M121.51,125.823l-0.82-2.103h-3.794l-0.821,2.103h-2.013
		l3.847-9.442h1.821l3.845,9.442H121.51z M118.792,118.858l-1.192,3.041h2.384L118.792,118.858z M130.306,118.35v7.474h-1.975
		v-7.474H125.6v-1.902h7.437v1.902H130.306z M143.235,123.6c-0.183,0.527-0.446,0.967-0.789,1.32
		c-0.341,0.353-0.756,0.616-1.244,0.79c-0.487,0.174-1.029,0.262-1.627,0.262c-1.206,0-2.154-0.349-2.846-1.045
		c-0.693-0.697-1.039-1.737-1.039-3.121v-5.357h1.974v5.304c0,0.768,0.171,1.346,0.513,1.734c0.341,0.388,0.816,0.583,1.423,0.583
		c0.607,0,1.082-0.188,1.423-0.564c0.343-0.374,0.513-0.937,0.513-1.687v-5.37h1.975v5.291
		C143.511,122.453,143.419,123.073,143.235,123.6z M152.253,125.823l-1.923-3h-1.551v3h-1.975v-9.375h4.103
		c1.069,0,1.899,0.272,2.494,0.817c0.594,0.544,0.891,1.303,0.891,2.276v0.027c0,0.759-0.178,1.377-0.532,1.855
		c-0.354,0.477-0.819,0.828-1.39,1.052l2.192,3.348H152.253z M152.292,119.648c0-0.446-0.137-0.781-0.411-1.005
		c-0.273-0.222-0.654-0.335-1.141-0.335h-1.962v2.693h2c0.488,0,0.861-0.122,1.122-0.362c0.26-0.241,0.391-0.562,0.391-0.964
		V119.648z M157.357,125.823v-9.375h6.757v1.835h-4.808v1.902h4.231v1.835h-4.231v1.968h4.872v1.835H157.357z M65.143,141.896
		v-9.375H71.9v1.835h-4.808v1.902h4.231v1.835h-4.231v1.968h4.872v1.835H65.143z M81.309,141.896l-4.346-5.96v5.96h-1.949v-9.375
		h1.821l4.205,5.772v-5.772h1.949v9.375H81.309z M93.105,141.896l-0.82-2.103H88.49l-0.821,2.103h-2.013l3.847-9.442h1.821
		l3.845,9.442H93.105z M90.387,134.931l-1.192,3.041h2.384L90.387,134.931z M105.216,140.449c-0.158,0.322-0.385,0.59-0.679,0.803
		c-0.294,0.215-0.649,0.375-1.062,0.483c-0.415,0.107-0.872,0.161-1.376,0.161h-4.263v-9.375h4.159c0.922,0,1.645,0.218,2.17,0.657
		c0.524,0.437,0.787,1.027,0.787,1.767v0.027c0,0.268-0.033,0.505-0.095,0.71c-0.064,0.205-0.149,0.39-0.255,0.556
		c-0.106,0.165-0.23,0.31-0.37,0.434c-0.14,0.126-0.29,0.233-0.451,0.322c0.518,0.205,0.927,0.485,1.224,0.837
		c0.298,0.353,0.447,0.842,0.447,1.466v0.027C105.453,139.753,105.375,140.127,105.216,140.449z M103.005,135.293
		c0-0.313-0.111-0.552-0.334-0.717c-0.222-0.165-0.543-0.249-0.961-0.249h-1.949v1.983h1.821c0.436,0,0.782-0.078,1.039-0.234
		c0.256-0.157,0.385-0.409,0.385-0.757V135.293z M103.504,139.043c0-0.313-0.115-0.56-0.347-0.743
		c-0.23-0.183-0.602-0.275-1.116-0.275h-2.281v2.063h2.345c0.437,0,0.778-0.082,1.027-0.249c0.247-0.165,0.371-0.421,0.371-0.77
		V139.043z M108.375,141.896v-9.375h1.975v7.514h4.475v1.861H108.375z M117.592,141.896v-9.375h6.757v1.835h-4.808v1.902h4.231
		v1.835h-4.231v1.968h4.872v1.835H117.592z M135.387,139.056c-0.23,0.572-0.557,1.067-0.981,1.487
		c-0.422,0.42-0.927,0.749-1.512,0.991c-0.586,0.241-1.229,0.361-1.931,0.361h-3.5v-9.375h3.5c0.701,0,1.345,0.119,1.931,0.354
		c0.585,0.237,1.09,0.565,1.512,0.985c0.424,0.42,0.751,0.913,0.981,1.481c0.232,0.566,0.347,1.18,0.347,1.842v0.026
		C135.734,137.868,135.619,138.484,135.387,139.056z M133.67,137.208c0-0.411-0.067-0.79-0.199-1.138
		c-0.133-0.349-0.317-0.647-0.552-0.897c-0.235-0.251-0.519-0.445-0.853-0.583s-0.701-0.208-1.103-0.208h-1.525v5.653h1.525
		c0.402,0,0.769-0.068,1.103-0.201c0.334-0.133,0.617-0.326,0.853-0.576c0.235-0.25,0.419-0.545,0.552-0.884
		c0.132-0.339,0.199-0.719,0.199-1.139V137.208z M103.46,82.479c-5.127,5.468-12.395,7.749-19.305,6.781
		c0.952,1.759,2.188,3.399,3.722,4.836c7.696,7.224,19.829,6.838,27.046-0.855c7.223-7.692,6.84-19.818-0.855-27.04
		c-1.534-1.44-3.255-2.576-5.066-3.415C110.401,69.622,108.587,77.023,103.46,82.479 M116.397,63.816
		c5.459,5.131,7.735,12.399,6.771,19.308c1.764-0.954,3.402-2.191,4.841-3.728c7.217-7.69,6.835-19.823-0.855-27.045
		c-7.7-7.22-19.825-6.833-27.048,0.856c-1.437,1.538-2.567,3.252-3.41,5.064C103.532,56.872,110.927,58.692,116.397,63.816
		 M97.727,50.884c5.127-5.47,12.395-7.751,19.305-6.78c-0.948-1.756-2.188-3.399-3.726-4.839c-7.696-7.22-19.819-6.838-27.044,0.858
		c-7.217,7.69-6.835,19.822,0.858,27.044c1.538,1.439,3.249,2.574,5.066,3.408C90.784,63.742,92.6,56.348,97.727,50.884
		 M84.795,69.548c-5.464-5.132-7.749-12.395-6.779-19.306c-1.758,0.946-3.399,2.192-4.839,3.724
		c-7.221,7.698-6.84,19.826,0.858,27.046c7.692,7.218,19.821,6.834,27.04-0.86c1.449-1.532,2.576-3.249,3.41-5.064
		C97.654,76.491,90.26,74.677,84.795,69.548"/>
	<path d="M100.64,195.635c-7.919,0-15.836-3.014-21.864-9.042l-64.441-64.441c-5.84-5.839-9.057-13.603-9.057-21.863
		c0-8.259,3.217-16.023,9.057-21.863l64.441-64.44c12.056-12.056,31.674-12.054,43.726,0l64.441,64.44
		c5.84,5.84,9.057,13.604,9.057,21.863c0,8.26-3.217,16.024-9.057,21.863l-64.441,64.441
		C116.474,192.622,108.557,195.635,100.64,195.635z M100.64,9.954c-6.635,0-13.27,2.525-18.321,7.575L17.878,81.97
		c-4.892,4.893-7.588,11.4-7.588,18.32c0,6.921,2.696,13.426,7.588,18.32L82.32,183.05c10.1,10.101,26.535,10.103,36.639,0
		l64.441-64.441c4.892-4.893,7.588-11.399,7.588-18.32c0-6.92-2.696-13.426-7.588-18.32l-64.441-64.44
		C113.908,12.48,107.273,9.954,100.64,9.954z M132.623,74.062h-16.038V90.1h4.176v7.28l-16.187,10.408V65.12h7.667l-11.175-21.764
		L91.043,65.12h6.516v54.174l-14.552-9.919v-7.103c3.798-1.426,6.515-5.062,6.515-9.358c0-5.536-4.488-10.024-10.024-10.024
		c-5.536,0-10.024,4.488-10.024,10.024c0,4.297,2.717,7.933,6.516,9.358v10.811l21.568,14.701v7.29
		c-3.799,1.425-6.516,5.061-6.516,9.358c0,5.536,4.488,10.024,10.024,10.024s10.024-4.488,10.024-10.024
		c0-4.296-2.717-7.932-6.515-9.358v-18.945l23.203-14.919V90.1h4.845V74.062z"/>
	<path d="M186.491,78.696L122,14.204c-12.065-12.065-31.697-12.063-43.762,0L13.746,78.696c-12.065,12.065-12.065,31.696,0,43.761
		l64.492,64.493c6.033,6.033,13.957,9.05,21.882,9.05c7.923,0,15.848-3.017,21.881-9.05l64.492-64.493
		C198.557,110.392,198.557,90.762,186.491,78.696z M182.945,118.911l-64.492,64.493c-10.109,10.108-26.558,10.112-36.669,0
		l-64.492-64.493c-10.109-10.11-10.109-26.558,0-36.668L81.784,17.75c5.056-5.055,11.694-7.583,18.335-7.583
		c6.638,0,13.28,2.528,18.334,7.583l64.492,64.493C193.054,92.353,193.054,108.801,182.945,118.911z M129.716,89.809l-2.888-6.403
		L90.368,99.851l1.745,3.868c-16.082,0.502-29.019,13.708-29.019,29.91c0,16.519,13.439,29.958,29.958,29.958
		s29.959-13.439,29.959-29.958c0-7.379-2.694-14.131-7.134-19.358l13.84-6.237l-2.886-6.403l-16.61,7.485
		c-3.581-2.516-7.733-4.251-12.222-5.001L129.716,89.809z M93.051,156.565c-12.646,0-22.936-10.288-22.936-22.936
		c0-12.647,10.289-22.936,22.936-22.936c12.647,0,22.937,10.288,22.937,22.936C115.987,146.277,105.698,156.565,93.051,156.565z
		 M93.255,88.028l-2.886-6.403l36.461-16.443l2.886,6.403L93.255,88.028z M93.255,69.805l-2.886-6.403l36.461-16.443l2.886,6.403
		L93.255,69.805z M93.051,120.114c-7.777,0-14.104,6.327-14.104,14.105c0,7.777,6.327,14.103,14.104,14.103
		s14.105-6.327,14.105-14.103C107.156,126.441,100.828,120.114,93.051,120.114z M93.051,141.3c-3.905,0-7.082-3.176-7.082-7.081
		c0-3.905,3.177-7.083,7.082-7.083c3.906,0,7.083,3.178,7.083,7.083C100.134,138.124,96.957,141.3,93.051,141.3z"/>
	<g display="inline">
		<path d="M99.815,195.286c-7.904,0-15.807-3.008-21.824-9.025l-64.322-64.323c-5.829-5.828-9.04-13.578-9.04-21.823
			c0-8.244,3.211-15.994,9.04-21.823L77.991,13.97c12.034-12.033,31.613-12.034,43.647,0l64.322,64.322
			c5.829,5.829,9.04,13.579,9.04,21.823c0,8.245-3.211,15.995-9.04,21.823l-64.322,64.323
			C115.621,192.278,107.718,195.286,99.815,195.286z M99.814,9.944c-6.622,0-13.244,2.521-18.286,7.563L17.206,81.829
			c-4.884,4.884-7.574,11.379-7.574,18.286c0,6.908,2.69,13.402,7.574,18.286l64.322,64.323c10.084,10.084,26.491,10.082,36.573,0
			l64.322-64.323c4.884-4.884,7.574-11.378,7.574-18.286c0-6.907-2.69-13.402-7.574-18.286l-64.322-64.322
			C113.059,12.465,106.437,9.944,99.814,9.944z"/>
	</g>
	<g display="inline">
		<path d="M103.527,71.852c-4.269-9.625-9.473-27.09-9.525-27.265l-0.745-2.505h-9.711h-2.582H70.125l-0.799,2.392
			c-0.059,0.175-5.908,17.617-10.711,27.234c-1.764,3.53-1.641,10.509,2.059,16.492c1.027,1.661,2.444,3.425,4.356,5.042
			c-1.465,1.976-2.312,4.252-2.312,6.711v50.815c0,7.756,8.2,13.832,18.668,13.832c9.748,0,17.737-5.41,18.594-12.705
			c0.061-0.583,0.074-51.43,0.074-51.942c0-2.478-0.86-4.771-2.346-6.76c1.325-1.241,2.374-2.548,3.182-3.791
			C104.769,83.44,105.277,75.796,103.527,71.852z M92.998,151.307c-0.465,3.058-5.187,6.288-11.612,6.288
			c-6.874,0-11.664-3.599-11.664-6.828V99.953c0-1.029,0.496-2.088,1.386-3.057c0.389,0.159,0.823,0.29,1.238,0.432v9.701
			c0,4.936,4.016,8.952,8.951,8.952c4.63,0,8.548-3.615,8.922-8.292c0.011-0.151,0.018-4.713,0.023-10.076
			c0.531-0.184,1.073-0.359,1.562-0.57c0.803,0.931,1.246,1.936,1.246,2.911C93.051,100.428,93.022,148.198,92.998,151.307z
			 M79.35,107.029V80.22c0-1.074,0.874-1.947,1.947-1.947c1.074,0,1.948,0.874,1.948,1.947c0,0.255-0.011,26.365-0.012,26.969
			c-0.08,1.002-0.931,1.787-1.937,1.787C80.224,108.977,79.35,108.103,79.35,107.029z M95.019,85.584
			c-1.218,1.872-2.841,3.291-4.773,4.352c0.002-5.229,0.003-9.607,0.003-9.715c0-4.935-4.016-8.951-8.952-8.951
			c-4.935,0-8.951,4.016-8.951,8.951v9.445c-2.405-1.251-4.355-2.949-5.716-5.15c-2.594-4.196-2.307-8.564-1.75-9.68
			c3.979-7.966,8.461-20.518,10.271-25.751h8.395h0h4.501c1.63,5.295,5.574,17.709,9.077,25.606
			C97.7,75.987,97.916,81.129,95.019,85.584z"/>
		<path d="M81.298,133.086c-5.888,0-10.678,4.79-10.678,10.677c0,5.887,4.79,10.677,10.678,10.677
			c5.887,0,10.677-4.79,10.677-10.677C91.975,137.876,87.185,133.086,81.298,133.086z M81.298,147.436
			c-2.025,0-3.674-1.647-3.674-3.673c0-2.025,1.648-3.673,3.674-3.673s3.673,1.647,3.673,3.673
			C84.971,145.788,83.324,147.436,81.298,147.436z"/>
	</g>
	<g display="inline">
		<path d="M134.107,117.18h-16.469V97.658h12.307c7.842,0,14.221-5.097,14.221-11.363v-1.044c0-6.266-6.379-11.363-14.221-11.363
			h-12.307V54.366h16.469c17.288,0,31.385,13.923,31.664,31.146h0.004l-0.004,0.522C165.491,103.257,151.395,117.18,134.107,117.18z
			 M124.642,110.177h9.465c13.513,0,24.523-10.924,24.663-24.404c-0.141-13.48-11.15-24.404-24.663-24.404h-9.465v5.515h5.304
			c11.703,0,21.225,8.24,21.225,18.367v1.044c0,10.127-9.522,18.367-21.225,18.367h-5.304V110.177z"/>
	</g>
	<g display="inline">
		<rect x="108.073" y="54.849" width="7.004" height="19.021"/>
		<rect x="108.073" y="98.042" width="7.004" height="19.021"/>
	</g>
</g>
<g id="Layer_2" display="none">
	<g display="inline">
		<g>
			<path d="M99.686,195.382c-7.915,0-15.83-3.012-21.856-9.038l-64.419-64.419c-12.051-12.052-12.051-31.66,0-43.711l64.419-64.419
				c12.052-12.052,31.66-12.052,43.711,0l64.419,64.419c12.052,12.052,12.052,31.66,0,43.711l-64.419,64.419
				C115.516,192.368,107.602,195.382,99.686,195.382z M99.686,9.762c-6.633,0-13.264,2.525-18.313,7.574L16.954,81.756
				c-10.097,10.099-10.097,26.528,0,36.627l64.419,64.419c10.098,10.095,26.529,10.099,36.627,0l64.419-64.419
				c10.099-10.099,10.099-26.528,0-36.627L118,17.336C112.95,12.287,106.319,9.762,99.686,9.762z"/>
		</g>
		<g>
			<g>
				<polygon fill="#BFBFBF" points="107.127,55.128 114.097,59.776 114.705,91.194 107.826,86.435 				"/>
			</g>
		</g>
		<g>
			<g>
				<polygon points="123.568,66.587 130.539,71.235 130.849,113.112 123.97,108.353 				"/>
			</g>
		</g>
		<g>
			<g>
				<polygon points="75.888,33.357 82.858,38.005 83.237,94.065 76.358,89.306 				"/>
			</g>
		</g>
		<g>
			<g>
				<polygon fill="#BFBFBF" points="92.404,44.763 99.375,49.411 98.986,91.842 92.114,86.852 				"/>
			</g>
		</g>
		<g>
			<g>
				<path d="M88.991,157.176c0.646,0.28,1.306,0.551,2.011,0.796l-0.089,11.354c-0.042,5.347,4.277,9.733,9.627,9.776
					c5.016,0.04,9.294-3.841,9.739-8.836l0.013-0.205c0.014-0.192,0.026-0.383,0.027-0.579l0.087-11.039
					c0.841-0.273,1.648-0.57,2.402-0.902l5.956-3.777c1.641-1.45,2.915-3.002,3.889-4.474c4.375-6.608,5.019-15.09,3.116-19.475
					c-4.779-11.005-10.547-30.929-10.605-31.129l-0.726-2.514l-10.688-0.086l-2.936-0.024l-11.981-0.096l-0.819,2.388
					c-0.068,0.199-6.89,20.004-12.449,30.915c-1.977,3.884-1.885,11.617,2.178,18.304c1.186,1.952,2.877,4.024,5.166,5.913
					 M97.928,169.382l0.24-30.467c0.012-1.483,1.227-2.679,2.709-2.667s2.679,1.227,2.667,2.71l-0.24,30.463l-0.016,0.225
					c-0.121,1.38-1.304,2.455-2.693,2.444C99.112,172.078,97.916,170.864,97.928,169.382z M116.802,145.42
					c-1.595,2.41-3.737,4.195-6.337,5.432l0.093-11.838c0.042-5.349-4.277-9.735-9.627-9.778c-5.35-0.043-9.737,4.273-9.779,9.622
					l-0.091,11.511c-3.14-1.491-5.621-3.636-7.324-6.438c-2.951-4.853-2.7-9.952-1.922-11.479
					c4.667-9.161,9.974-23.718,11.997-29.433l6.945,0.056l2.936,0.024l5.469,0.044c1.736,5.817,6.194,20.309,10.17,29.464
					C120.027,134.205,120.285,140.162,116.802,145.42z"/>
			</g>
		</g>
	</g>
</g>
<g id="Layer_3">
	<g>
		<path d="M98.897,194.151c-7.899,0-15.796-3.005-21.809-9.018l-64.278-64.278c-12.023-12.025-12.023-31.59,0-43.615l64.278-64.278
			c12.025-12.023,31.59-12.027,43.615,0l64.278,64.278c12.025,12.025,12.025,31.59,0,43.615l-64.278,64.278
			C114.691,191.146,106.794,194.151,98.897,194.151z M98.897,8.94c-6.618,0-13.236,2.519-18.274,7.557L16.345,80.775
			c-10.074,10.076-10.074,26.47,0,36.546l64.278,64.278c10.074,10.076,26.468,10.076,36.546,0l64.278-64.278
			c10.076-10.076,10.076-26.47,0-36.546l-64.278-64.278C112.131,11.459,105.513,8.94,98.897,8.94z"/>
	</g>
	<g>
		<g>
			<path d="M126.816,151.077H68.369c-7.169,0-13-5.831-13-13V79.631c0-7.169,5.831-13,13-13h23.14v6.999h-23.14
				c-3.308,0-6.001,2.693-6.001,6.001v58.447c0,3.308,2.693,6.001,6.001,6.001h58.447c3.308,0,6.001-2.693,6.001-6.001v-30.028
				h6.999v30.028C139.815,145.246,133.984,151.077,126.816,151.077z"/>
		</g>
	</g>
	<g>
		<path d="M79.605,136.328l-3.65-5.448h-2.943v5.448h-3.745v-17.028h7.784c2.027,0,3.603,0.496,4.73,1.484
			c1.129,0.99,1.691,2.369,1.691,4.136v0.049c0,1.379-0.336,2.502-1.01,3.369c-0.674,0.867-1.552,1.504-2.638,1.91l4.159,6.081
			H79.605z M79.678,125.113c0-0.81-0.26-1.418-0.779-1.824c-0.519-0.404-1.24-0.607-2.164-0.607h-3.722v4.89h3.794
			c0.924,0,1.634-0.221,2.129-0.658c0.494-0.437,0.742-1.021,0.742-1.752V125.113z"/>
		<path d="M90.6,122.682v3.673h8.124v3.38H90.6v6.593h-3.745v-17.028h12.963v3.382H90.6z"/>
		<path d="M102.98,136.328v-17.028h3.745v17.028H102.98z"/>
		<path d="M126.015,131.17c-0.437,1.039-1.058,1.939-1.859,2.701c-0.805,0.762-1.761,1.361-2.871,1.8
			c-1.111,0.437-2.332,0.656-3.661,0.656h-6.641v-17.028h6.641c1.33,0,2.55,0.217,3.661,0.644c1.109,0.432,2.066,1.027,2.871,1.789
			c0.801,0.762,1.422,1.658,1.859,2.687c0.439,1.031,0.658,2.146,0.658,3.345v0.049C126.673,129.014,126.454,130.133,126.015,131.17
			z M122.758,127.814c0-0.746-0.127-1.435-0.379-2.068c-0.25-0.633-0.6-1.176-1.047-1.629c-0.445-0.455-0.984-0.806-1.617-1.058
			s-1.328-0.377-2.091-0.377h-2.896v10.266h2.896c0.764,0,1.459-0.123,2.091-0.365c0.633-0.244,1.172-0.592,1.617-1.047
			c0.447-0.453,0.797-0.988,1.047-1.605c0.252-0.617,0.379-1.304,0.379-2.068V127.814z"/>
	</g>
	<circle cx="119.758" cy="82.209" r="3.61"/>
	<g>
		<path d="M96.093,62.58c5.065-6.106,12.463-10.273,20.971-11.02c16.9-1.485,31.857,11.057,33.342,27.957
			c0.735,8.369-1.977,16.255-6.947,22.271l5.101,4.223c6.043-7.312,9.341-16.9,8.447-27.074
			c-1.805-20.541-19.982-35.783-40.523-33.978c-10.344,0.909-19.337,5.975-25.493,13.399L96.093,62.58z"/>
		<path d="M118.398,66.737c-4.29,0.377-8.02,2.475-10.577,5.55l5.101,4.223c1.465-1.757,3.6-2.956,6.055-3.172
			c4.892-0.43,9.22,3.199,9.65,8.091c0.212,2.414-0.571,4.687-2,6.426l5.104,4.225c2.502-3.035,3.868-7.011,3.497-11.231
			C134.48,72.318,126.93,65.988,118.398,66.737z"/>
		<path d="M117.471,56.191c-7.221,0.634-13.5,4.17-17.799,9.352l5.1,4.223c3.209-3.864,7.893-6.5,13.279-6.973
			c10.707-0.941,20.183,7.005,21.123,17.712c0.465,5.298-1.251,10.29-4.395,14.1l5.101,4.223c4.217-5.106,6.519-11.799,5.895-18.902
			C144.516,65.577,131.818,54.93,117.471,56.191z"/>
	</g>
</g>
</svg>
